HIERARCHY
ROOT root
{
	OFFSET 0.000000 0.000000 0.000000
	CHANNELS 6 Xposition Yposition Zposition Zrotation Yrotation Xrotation
	JOINT lhip
	{
		OFFSET 0.058581 -0.082280 -0.017664
		CHANNELS 3 Zrotation Yrotation Xrotation
		JOINT lknee
		{
			OFFSET 0.043451 -0.386469 0.008037
			CHANNELS 3 Zrotation Yrotation Xrotation
			JOINT lankle
			{
				OFFSET -0.014790 -0.426874 -0.037428
				CHANNELS 3 Zrotation Yrotation Xrotation
				JOINT ltoe
				{
					OFFSET 0.041054 -0.060286 0.122042
					CHANNELS 3 Zrotation Yrotation Xrotation
					End Site
					{
						OFFSET 0.000000 0.000000 0.000000
					}
				}
			}
		}
	}
	JOINT rhip
	{
		OFFSET -0.060310 -0.090513 -0.013543
		CHANNELS 3 Zrotation Yrotation Xrotation
		JOINT rknee
		{
			OFFSET -0.043257 -0.383688 -0.004843
			CHANNELS 3 Zrotation Yrotation Xrotation
			JOINT rankle
			{
				OFFSET 0.019056 -0.420046 -0.034562
				CHANNELS 3 Zrotation Yrotation Xrotation
				JOINT rtoe
				{
					OFFSET -0.034840 -0.062106 0.130323
					CHANNELS 3 Zrotation Yrotation Xrotation
					End Site
					{
						OFFSET 0.000000 0.000000 0.000000
					}
				}
			}
		}
	}
	JOINT lowerback
	{
		OFFSET 0.004439 0.124404 -0.038385
		CHANNELS 3 Zrotation Yrotation Xrotation
		JOINT upperback
		{
			OFFSET 0.004488 0.137956 0.026820
			CHANNELS 3 Zrotation Yrotation Xrotation
			JOINT chest
			{
				OFFSET -0.002265 0.056032 0.002855
				CHANNELS 3 Zrotation Yrotation Xrotation
				JOINT lowerneck
				{
					OFFSET -0.013390 0.211636 -0.033468
					CHANNELS 3 Zrotation Yrotation Xrotation
					JOINT upperneck
					{
						OFFSET 0.010113 0.088937 0.050410
						CHANNELS 3 Zrotation Yrotation Xrotation
						End Site
						{
							OFFSET 0.000000 0.000000 0.000000
						}
					}
				}
				JOINT lclavicle
				{
					OFFSET 0.071702 0.114000 -0.018898
					CHANNELS 3 Zrotation Yrotation Xrotation
					JOINT lshoulder
					{
						OFFSET 0.122921 0.045205 -0.019046
						CHANNELS 3 Zrotation Yrotation Xrotation
						JOINT lelbow
						{
							OFFSET 0.255332 -0.015649 -0.022946
							CHANNELS 3 Zrotation Yrotation Xrotation
							JOINT lwrist
							{
								OFFSET 0.265709 0.012698 -0.007375
								CHANNELS 3 Zrotation Yrotation Xrotation
								End Site
								{
									OFFSET 0.000000 0.000000 0.000000
								}
							}
						}
					}
				}
				JOINT rclavicle
				{
					OFFSET -0.082954 0.112472 -0.023707
					CHANNELS 3 Zrotation Yrotation Xrotation
					JOINT rshoulder
					{
						OFFSET -0.113228 0.046853 -0.008472
						CHANNELS 3 Zrotation Yrotation Xrotation
						JOINT relbow
						{
							OFFSET -0.260127 -0.014369 -0.031269
							CHANNELS 3 Zrotation Yrotation Xrotation
							JOINT rwrist
							{
								OFFSET -0.269108 0.006794 -0.006027
								CHANNELS 3 Zrotation Yrotation Xrotation
								End Site
								{
									OFFSET 0.000000 0.000000 0.000000
								}
							}
						}
					}
				}
			}
		}
	}
}
MOTION
Frames: 13
Frame Time: 0.033333
-1.215401 0.817086 0.962816 84.181066 -1.505349 89.438257 15.550002 3.446701 -1.606228 -8.741415 -12.234244 13.315538 -1.204617 8.148325 -18.416953 0.000000 -0.000000 0.000000 -11.978143 -4.247886 -12.162925 8.117665 7.037047 29.402636 3.723148 -2.915353 -25.762356 0.000000 -0.000000 0.000000 -2.049452 -1.835310 4.994675 1.074327 -0.573545 -5.714512 -2.177341 -2.011809 1.090583 4.114983 12.406236 -4.203744 -5.084906 3.293259 27.281078 -30.172187 16.433280 -2.418134 -42.768250 -3.652719 3.390535 2.643140 -16.848384 -7.086717 10.713839 -10.561642 -13.188582 33.349179 -10.883288 -4.171123 43.037798 4.114578 14.566652 -4.189895 20.564997 4.386480 7.191314 9.082350 2.803317 
-1.215777 0.807793 0.963869 84.239464 -1.798441 89.592140 15.864222 3.036556 -1.283878 -8.592892 -11.904891 12.351473 -1.781055 7.967467 -17.284022 0.000000 -0.000000 0.000000 -11.753241 -4.026620 -12.299211 8.106512 6.546296 29.479523 3.181464 -2.667551 -25.904355 0.000000 -0.000000 0.000000 -2.256707 -1.773286 4.902437 1.224016 -0.686505 -5.910318 -1.854964 -2.162347 0.788368 3.999121 12.296768 -4.428242 -5.095920 3.753403 27.212651 -30.741407 16.726309 -2.271227 -45.053953 -3.331263 3.353421 3.015586 -15.076107 -8.998114 10.271132 -10.201429 -14.689236 33.716349 -10.570683 -4.101893 42.231218 4.811390 14.340222 -4.539439 20.183192 3.620358 7.239517 9.120720 2.971352 
-1.216085 0.801163 0.964757 84.482913 -1.825723 89.808833 16.272563 2.747376 -1.728633 -8.897522 -12.009994 12.776853 -1.993463 7.718117 -17.397467 0.000000 -0.000000 0.000000 -11.409215 -3.952560 -12.458460 8.311221 6.297504 29.510103 3.129771 -2.697585 -25.943722 0.000000 -0.000000 0.000000 -2.068532 -1.793941 4.808194 1.355448 -0.598636 -6.288061 -1.542808 -2.311371 0.467742 3.819485 11.927269 -4.788882 -4.777675 4.211544 27.260239 -31.361056 17.075014 -2.166715 -47.287085 -3.093353 3.292311 3.441302 -13.792561 -11.055816 10.208614 -9.613599 -16.800693 33.739466 -10.623338 -4.212399 41.261012 5.378481 13.996884 -4.191756 20.244098 3.558924 7.368971 9.039267 3.087352 
-1.216987 0.796026 0.964231 84.915725 -1.806521 89.988686 16.448600 2.527208 -2.928885 -9.845028 -12.822094 14.963521 -1.531032 7.346399 -20.598555 0.000000 -0.000000 0.000000 -10.931420 -3.887783 -12.779215 8.238379 6.253853 29.872619 2.924887 -3.225861 -26.435485 0.000000 -0.000000 0.000000 -1.760383 -1.804597 4.765173 1.530272 -0.399720 -6.570810 -1.343388 -2.147240 0.483453 3.991088 10.957992 -5.587009 -4.856551 4.135325 26.937258 -31.919750 17.051225 -2.102201 -49.484492 -3.073945 3.753245 3.215127 -13.606684 -11.576190 10.856368 -9.172755 -19.426578 33.911521 -10.248813 -4.222609 40.035866 5.900577 13.712625 -4.445472 20.511413 2.968142 6.309016 9.245808 3.218957 
-1.217769 0.795026 0.962376 85.207386 -1.868640 90.115913 16.282682 2.179271 -3.746135 -10.471839 -12.967840 16.259530 -0.924217 6.842165 -22.418147 0.000000 -0.000000 0.000000 -10.864332 -3.918245 -13.248156 8.203795 6.151246 30.504241 2.980481 -3.348968 -26.724533 0.000000 -0.000000 0.000000 -1.565989 -1.673498 4.571399 1.712021 -0.376950 -6.350039 -1.298716 -2.169461 0.202545 4.055848 10.666550 -5.621566 -4.742887 4.064358 26.297532 -32.209175 16.469037 -1.360839 -50.506364 -2.799565 4.458741 3.008324 -14.360498 -11.375250 11.069353 -8.631080 -20.284249 33.676953 -9.537569 -3.872433 39.431273 6.017404 13.497211 -4.598175 20.454724 2.624211 6.463379 8.855279 2.670322 
-1.218492 0.795146 0.959736 85.362217 -1.847529 89.964222 15.951299 1.437786 -4.114015 -10.976609 -12.731613 17.146361 -0.085897 7.115492 -23.754940 0.000000 -0.000000 0.000000 -10.735161 -3.739097 -13.763188 8.194991 6.060410 31.774121 3.015767 -3.702155 -27.195149 0.000000 -0.000000 0.000000 -1.571360 -1.339274 4.844547 2.069229 -0.368998 -6.137039 -0.895520 -2.043608 -0.008431 4.109531 10.044990 -6.618578 -4.716858 3.544808 26.066769 -32.791787 15.458521 -0.830130 -51.276391 -2.470138 5.377957 2.009488 -15.396591 -10.450548 11.397649 -8.627796 -20.593464 33.944833 -8.365817 -2.954476 37.759192 6.341106 12.813670 -5.069315 20.647144 1.636566 6.217186 9.421497 3.117011 
-1.218608 0.797424 0.955901 85.753773 -1.325033 89.615916 15.839253 1.200711 -4.135177 -10.683915 -12.873475 17.171981 0.577310 7.001641 -23.077201 0.000000 -0.000000 0.000000 -10.308610 -3.581695 -13.820697 8.304645 5.834884 32.744067 2.726538 -4.065076 -27.647195 0.000000 -0.000000 0.000000 -1.060005 -1.169361 5.068608 2.520344 -0.296039 -5.531899 -0.432702 -2.022520 -0.333238 3.906215 9.340765 -6.894369 -4.649037 3.431145 25.156420 -33.404642 13.622897 0.014431 -51.907378 -2.273531 6.469013 1.203121 -15.981580 -9.648359 13.021113 -8.497263 -20.004996 34.168514 -6.588909 -1.669390 35.585866 6.295963 11.957373 -5.152755 20.692337 0.430873 5.161162 9.545259 3.087720 
-1.220207 0.800859 0.950691 85.923700 -1.010492 89.181915 15.752841 0.969529 -4.739948 -10.478006 -13.435975 18.888526 1.259495 7.777074 -23.410490 0.000000 -0.000000 0.000000 -10.234496 -3.555560 -14.397951 8.689934 5.771061 34.557373 2.678101 -4.340457 -28.310024 0.000000 -0.000000 0.000000 -1.259849 -1.166860 5.328277 3.147807 -0.368039 -4.577291 0.247986 -1.731099 -0.470379 3.949789 8.957952 -7.839366 -4.500003 3.084076 24.377995 -33.822598 11.682851 0.409927 -52.095807 -2.324653 7.532380 0.484686 -16.523887 -8.774065 14.084556 -7.922920 -19.556331 34.640972 -4.514134 -0.830408 33.183084 6.297858 11.145424 -5.199189 20.608850 -0.229430 5.744542 9.052642 3.438924 
-1.220249 0.804838 0.946709 86.302095 -1.005624 88.577646 15.815381 1.012450 -5.926370 -11.460906 -13.642238 22.030066 1.035537 7.429375 -24.260652 0.000000 -0.000000 0.000000 -10.557625 -3.653438 -14.441198 8.797395 5.445573 36.025994 2.854076 -4.412732 -29.034712 0.000000 -0.000000 0.000000 -1.713879 -1.082744 6.096387 3.649605 -0.660694 -4.549406 0.614014 -1.708503 -0.423693 4.505009 9.521411 -8.829968 -4.567017 2.618880 24.313379 -34.184637 10.695238 0.222543 -50.762340 -2.639135 8.233684 -1.224713 -16.500901 -7.166533 13.731260 -8.913002 -18.332154 35.668605 -3.519211 -1.145926 30.970787 7.026781 10.794893 -4.909835 19.462788 -0.359187 6.241417 9.125486 4.780011 
-1.219734 0.809928 0.942973 86.428851 -1.207440 87.904970 15.782708 0.757330 -6.089457 -12.409922 -12.939905 23.660961 1.130973 7.247582 -25.426694 0.000000 -0.000000 0.000000 -11.251790 -3.868822 -14.289721 9.058217 5.419495 37.219967 2.886084 -4.507834 -29.723148 0.000000 -0.000000 0.000000 -2.336084 -0.843545 6.651037 4.080499 -0.933679 -4.185472 0.718509 -1.603946 -0.573070 5.421780 10.325538 -9.445036 -4.741504 1.948997 24.367920 -33.994074 9.600177 0.073911 -48.613527 -3.088807 8.727327 -2.702917 -16.875481 -4.594480 9.837092 -10.053046 -16.624564 36.751797 -2.924234 -1.119374 29.623317 7.914687 10.286670 -5.740964 18.730314 -1.222895 8.223507 8.749804 6.192126 
-1.219213 0.813995 0.940636 86.734407 -1.316968 87.860062 15.702735 1.657794 -6.369938 -12.836422 -13.111383 24.172587 1.546616 6.559941 -25.712598 0.000000 -0.000000 0.000000 -11.732979 -4.412218 -14.421259 9.221412 5.419826 37.715178 2.707308 -4.377030 -30.101251 0.000000 -0.000000 0.000000 -2.485400 -0.783998 6.420424 4.295968 -1.246397 -3.916981 0.547224 -1.526985 -0.930552 5.677642 10.562962 -9.240731 -4.911504 0.990239 24.191338 -33.866731 8.791794 0.376588 -46.292034 -3.161699 8.707468 -3.525888 -18.013625 -2.007494 7.114058 -10.871614 -14.676155 36.980043 -2.456501 -0.785364 29.938269 7.696578 9.720510 -6.743832 18.571640 -2.181076 8.585882 8.548495 6.048619 
-1.217960 0.817868 0.940632 87.370786 -1.356212 87.817634 15.745124 2.265678 -6.401669 -13.264049 -13.532644 24.102261 1.513711 5.869082 -25.557564 0.000000 -0.000000 0.000000 -12.086960 -4.804824 -14.023345 9.051601 5.205289 37.483531 3.085541 -4.380243 -30.133045 0.000000 -0.000000 0.000000 -2.698385 -0.828969 6.363269 4.354748 -1.402136 -4.002126 0.386686 -1.481012 -0.795924 6.028627 10.873653 -9.840974 -5.009501 0.049614 24.082806 -33.500873 8.466579 0.352799 -44.003361 -3.934846 8.524877 -4.654289 -18.848882 -0.056258 6.086496 -11.831825 -13.907051 37.501920 -2.927821 -1.203850 30.261116 7.477016 9.512871 -7.412077 19.401683 -3.368992 6.620534 9.148109 5.895352 
-1.216434 0.821231 0.942084 87.739165 -1.277539 87.362764 15.614140 1.572898 -5.856917 -13.223011 -13.551403 23.858788 1.280881 6.105426 -25.446347 0.000000 -0.000000 0.000000 -12.293479 -4.596460 -13.042712 8.885356 4.795552 36.958734 3.285275 -4.589260 -29.794861 0.000000 -0.000000 0.000000 -2.451594 -0.715840 6.526627 4.215715 -1.708585 -3.790765 0.070955 -1.428708 -0.576412 5.956727 10.875178 -9.669965 -4.967783 -0.416905 22.925125 -33.108712 7.924194 0.311389 -42.126444 -4.436195 8.405654 -4.920921 -20.103007 -0.245883 5.509684 -11.924901 -14.173413 37.532571 -2.920699 -1.215541 31.174897 6.820979 10.159221 -7.886319 20.501536 -4.171366 6.877934 9.435509 4.278840 
